<svg version="1.1" id="Layer_1" xmlns="http://www.w3.org/2000/svg" xmlns:xlink="http://www.w3.org/1999/xlink" x="0px" y="0px"
	 width="100%" viewBox="0 0 500 500" enable-background="new 0 0 500 500" xml:space="preserve">
<path fill="#000000" opacity="1.000000" stroke="none" 
	d="
M268.000000,501.000000 
	C178.666687,501.000000 89.833374,501.000000 1.000048,501.000000 
	C1.000032,334.333405 1.000032,167.666794 1.000016,1.000137 
	C167.666565,1.000091 334.333130,1.000091 500.999756,1.000046 
	C500.999847,167.666519 500.999847,334.333038 500.999939,500.999786 
	C423.500000,501.000000 346.000000,501.000000 268.000000,501.000000 
M250.603455,266.928528 
	C251.096191,266.901184 251.588943,266.873840 253.003006,266.955688 
	C260.249115,266.955688 267.495239,266.955688 274.893860,266.955688 
	C274.893860,254.489899 274.851318,242.835815 274.913849,231.182281 
	C274.940552,226.203796 279.424194,221.599976 283.811859,221.816101 
	C288.191925,222.031860 290.082550,224.630615 290.095093,230.626389 
	C290.120087,242.577637 290.102509,254.528961 290.102509,266.589142 
	C298.224121,266.589142 305.914703,266.589142 313.852722,266.589142 
	C313.852722,255.375046 313.696899,244.557678 313.958832,233.750443 
	C314.027039,230.936813 314.732697,227.643463 316.370239,225.510834 
	C317.829437,223.610474 321.111267,221.899017 323.349548,222.159500 
	C325.445984,222.403473 327.667908,225.066101 329.007416,227.186813 
	C330.040100,228.821808 330.051483,231.264053 330.068848,233.351105 
	C330.161255,244.447556 330.112305,255.545212 330.112305,266.703583 
	C338.375397,266.703583 345.953217,266.703583 353.920105,266.703583 
	C353.920105,253.459808 353.976318,240.500809 353.875092,227.543045 
	C353.853516,224.779694 353.356842,222.004990 352.910126,219.263031 
	C351.836578,212.673431 344.714630,205.693024 338.587769,205.104858 
	C328.310822,204.118271 318.758575,205.388626 311.614197,214.041534 
	C305.666199,201.839569 283.547302,201.895584 272.131439,212.960785 
	C271.506958,210.638565 270.943390,208.542923 270.327332,206.252106 
	C264.316711,206.252106 258.181305,206.252106 251.568344,206.241104 
	C251.225159,206.452026 251.159225,206.729095 251.253906,207.993759 
	C251.227142,222.339951 251.200378,236.686157 250.399094,251.243393 
	C248.286331,251.466446 246.173553,251.689499 243.871597,251.088837 
	C243.524445,249.346268 242.902313,247.607529 242.878098,245.860474 
	C242.776566,238.538132 242.952591,231.211716 242.837067,223.889801 
	C242.732208,217.244507 240.526917,211.424561 233.766449,209.165543 
	C228.084641,207.266953 222.102768,205.689209 216.163452,205.280014 
	C208.185623,204.730377 200.073227,204.067886 192.198685,207.063354 
	C182.323532,210.819824 178.238235,216.241608 179.707794,224.519943 
	C181.784698,224.987350 183.870773,225.943771 185.889328,225.817886 
	C191.474091,225.469589 198.115112,228.507889 202.335373,223.406372 
	C205.690399,219.350723 209.499863,219.609573 213.369278,220.044495 
	C216.415527,220.386917 219.239655,222.497269 219.054077,226.240067 
	C218.859268,230.169296 215.609482,228.852234 213.336090,229.096405 
	C206.830551,229.795166 200.136169,229.759521 193.867508,231.375763 
	C186.363968,233.310379 179.690994,236.834885 177.642517,245.771988 
	C175.818726,253.728729 178.575211,264.506927 188.503952,267.230530 
	C199.113098,270.140839 208.730072,268.865906 218.101791,263.463928 
	C219.271301,262.789795 221.621582,262.290955 222.299042,262.921112 
	C230.670425,270.707916 240.120834,269.667816 250.603455,266.928528 
M139.908783,222.429092 
	C138.593872,217.923096 137.429962,213.363571 135.864197,208.946503 
	C135.441299,207.753540 133.826706,206.198242 132.714249,206.161331 
	C125.269943,205.914291 117.813515,206.032974 109.551842,206.032974 
	C117.460190,226.811066 125.091385,246.860977 132.746185,266.972900 
	C140.091949,266.972900 147.252335,266.860107 154.405838,267.032684 
	C156.987671,267.095001 158.070679,266.098358 158.954559,263.783142 
	C164.042252,250.456558 169.359802,237.217850 174.465179,223.897888 
	C176.680038,218.119354 178.574402,212.217957 180.651413,206.266144 
	C172.537994,206.266144 164.908417,206.266144 157.570618,206.266144 
	C154.072952,217.757217 150.663895,228.957214 147.254837,240.157211 
	C146.722900,240.142990 146.190964,240.128769 145.659027,240.114548 
	C143.772293,234.492661 141.885574,228.870789 139.908783,222.429092 
M376.446411,266.987244 
	C379.208099,266.987244 381.969788,266.987244 384.742645,266.987244 
	C384.742645,259.041199 384.742645,251.782715 384.742645,244.392151 
	C376.467377,244.392151 368.438599,244.392151 360.355408,244.392151 
	C360.355408,252.015747 360.355408,259.268219 360.355408,266.987244 
	C365.551758,266.987244 370.506042,266.987244 376.446411,266.987244 
M359.076935,279.089600 
	C353.552429,279.089600 348.027954,279.089600 342.533203,279.089600 
	C341.831909,281.712341 341.217865,284.008667 340.262817,287.580200 
	C339.488007,284.069305 338.975281,281.746002 338.457275,279.398743 
	C332.061890,277.263428 333.505371,284.658752 329.890656,286.437927 
	C330.272064,283.907501 330.615936,281.626221 331.007812,279.026581 
	C326.909271,280.309937 323.297363,280.305115 322.192444,278.400848 
	C319.765015,282.307404 318.981079,287.856018 312.248657,287.116699 
	C312.390991,285.595886 312.558350,283.808197 312.775055,281.492920 
	C314.943939,282.696808 316.179596,283.382721 318.977844,284.935974 
	C318.379730,282.161072 318.072021,280.733398 317.764282,279.305725 
	C314.908112,280.046692 311.338440,279.986664 309.377899,281.733063 
	C306.973389,283.874969 307.121735,287.549896 310.136139,289.851593 
	C313.781921,292.635315 316.305176,290.070740 318.755219,288.337585 
	C319.963593,288.981506 322.019623,289.396454 322.162415,289.041595 
	C325.181946,281.537659 325.631104,288.295929 326.177948,289.011475 
	C332.398407,289.011475 337.817108,289.011475 343.709717,289.011475 
	C343.823944,288.607391 344.182892,287.337677 344.550079,286.038757 
	C346.089203,287.664825 347.377258,289.025604 349.516510,291.285675 
	C349.773010,287.774231 349.536407,285.939423 350.143555,284.448120 
	C350.562836,283.418274 352.148438,282.863251 353.212830,282.096039 
	C353.371857,283.283905 353.681396,284.475800 353.650055,285.658600 
	C353.614532,286.997101 353.273163,288.327484 353.064789,289.661407 
	C353.735779,289.876038 354.406769,290.090698 355.077728,290.305328 
	C355.723663,288.585571 356.170715,286.750458 357.079620,285.183167 
	C357.783020,283.970154 359.064484,283.092316 360.088928,282.065460 
	C360.328644,283.601257 360.665833,285.131470 360.753967,286.675903 
	C360.783844,287.198944 360.184113,287.757935 359.158905,289.540527 
	C363.578217,289.540527 367.097839,289.540527 371.008087,289.540527 
	C369.502930,287.035858 367.517487,285.235657 367.513916,283.431610 
	C367.504883,278.835815 367.861328,278.864899 363.693604,279.164551 
	C362.448547,279.254059 361.187836,279.125702 359.076935,279.089600 
z"/>
<path fill="#08F982" opacity="1.000000" stroke="none" 
	d="
M251.173615,251.032349 
	C251.200378,236.686157 251.227142,222.339951 251.489594,207.461456 
	C251.924637,206.747284 252.031525,206.521591 252.045914,206.252106 
	C258.181305,206.252106 264.316711,206.252106 270.327332,206.252106 
	C270.943390,208.542923 271.506958,210.638565 272.131439,212.960785 
	C283.547302,201.895584 305.666199,201.839569 311.614197,214.041534 
	C318.758575,205.388626 328.310822,204.118271 338.587769,205.104858 
	C344.714630,205.693024 351.836578,212.673431 352.910126,219.263031 
	C353.356842,222.004990 353.853516,224.779694 353.875092,227.543045 
	C353.976318,240.500809 353.920105,253.459808 353.920105,266.703583 
	C345.953217,266.703583 338.375397,266.703583 330.112305,266.703583 
	C330.112305,255.545212 330.161255,244.447556 330.068848,233.351105 
	C330.051483,231.264053 330.040100,228.821808 329.007416,227.186813 
	C327.667908,225.066101 325.445984,222.403473 323.349548,222.159500 
	C321.111267,221.899017 317.829437,223.610474 316.370239,225.510834 
	C314.732697,227.643463 314.027039,230.936813 313.958832,233.750443 
	C313.696899,244.557678 313.852722,255.375046 313.852722,266.589142 
	C305.914703,266.589142 298.224121,266.589142 290.102509,266.589142 
	C290.102509,254.528961 290.120087,242.577637 290.095093,230.626389 
	C290.082550,224.630615 288.191925,222.031860 283.811859,221.816101 
	C279.424194,221.599976 274.940552,226.203796 274.913849,231.182281 
	C274.851318,242.835815 274.893860,254.489899 274.893860,266.955688 
	C267.495239,266.955688 260.249115,266.955688 252.516525,266.445435 
	C251.744568,260.967560 251.459091,255.999954 251.173615,251.032349 
z"/>
<path fill="#09F882" opacity="1.000000" stroke="none" 
	d="
M249.887848,266.724121 
	C240.120834,269.667816 230.670425,270.707916 222.299042,262.921112 
	C221.621582,262.290955 219.271301,262.789795 218.101791,263.463928 
	C208.730072,268.865906 199.113098,270.140839 188.503952,267.230530 
	C178.575211,264.506927 175.818726,253.728729 177.642517,245.771988 
	C179.690994,236.834885 186.363968,233.310379 193.867508,231.375763 
	C200.136169,229.759521 206.830551,229.795166 213.336090,229.096405 
	C215.609482,228.852234 218.859268,230.169296 219.054077,226.240067 
	C219.239655,222.497269 216.415527,220.386917 213.369278,220.044495 
	C209.499863,219.609573 205.690399,219.350723 202.335373,223.406372 
	C198.115112,228.507889 191.474091,225.469589 185.889328,225.817886 
	C183.870773,225.943771 181.784698,224.987350 179.707794,224.519943 
	C178.238235,216.241608 182.323532,210.819824 192.198685,207.063354 
	C200.073227,204.067886 208.185623,204.730377 216.163452,205.280014 
	C222.102768,205.689209 228.084641,207.266953 233.766449,209.165543 
	C240.526917,211.424561 242.732208,217.244507 242.837067,223.889801 
	C242.952591,231.211716 242.776566,238.538132 242.878098,245.860474 
	C242.902313,247.607529 243.524445,249.346268 244.254852,251.749207 
	C248.718719,252.586548 250.551224,254.452484 249.952942,258.748505 
	C249.589325,261.359406 249.887146,264.062469 249.887848,266.724121 
M215.057541,251.640198 
	C220.022049,249.494751 219.161148,245.349747 218.852921,240.119354 
	C213.869431,241.142944 209.194229,241.633667 204.917480,243.207275 
	C203.147919,243.858368 201.208191,246.849487 201.245239,248.739166 
	C201.275986,250.307709 203.918808,252.819031 205.712463,253.128662 
	C208.481857,253.606735 211.514175,252.561752 215.057541,251.640198 
z"/>
<path fill="#09F882" opacity="1.000000" stroke="none" 
	d="
M139.953812,222.838989 
	C141.885574,228.870789 143.772293,234.492661 145.659027,240.114548 
	C146.190964,240.128769 146.722900,240.142990 147.254837,240.157211 
	C150.663895,228.957214 154.072952,217.757217 157.570618,206.266144 
	C164.908417,206.266144 172.537994,206.266144 180.651413,206.266144 
	C178.574402,212.217957 176.680038,218.119354 174.465179,223.897888 
	C169.359802,237.217850 164.042252,250.456558 158.954559,263.783142 
	C158.070679,266.098358 156.987671,267.095001 154.405838,267.032684 
	C147.252335,266.860107 140.091949,266.972900 132.746185,266.972900 
	C125.091385,246.860977 117.460190,226.811066 109.551842,206.032974 
	C117.813515,206.032974 125.269943,205.914291 132.714249,206.161331 
	C133.826706,206.198242 135.441299,207.753540 135.864197,208.946503 
	C137.429962,213.363571 138.593872,217.923096 139.953812,222.838989 
z"/>
<path fill="#09F882" opacity="1.000000" stroke="none" 
	d="
M375.953369,266.987244 
	C370.506042,266.987244 365.551758,266.987244 360.355408,266.987244 
	C360.355408,259.268219 360.355408,252.015747 360.355408,244.392151 
	C368.438599,244.392151 376.467377,244.392151 384.742645,244.392151 
	C384.742645,251.782715 384.742645,259.041199 384.742645,266.987244 
	C381.969788,266.987244 379.208099,266.987244 375.953369,266.987244 
z"/>
<path fill="#20DD7D" opacity="1.000000" stroke="none" 
	d="
M359.505615,279.093384 
	C361.187836,279.125702 362.448547,279.254059 363.693604,279.164551 
	C367.861328,278.864899 367.504883,278.835815 367.513916,283.431610 
	C367.517487,285.235657 369.502930,287.035858 371.008087,289.540527 
	C367.097839,289.540527 363.578217,289.540527 359.158905,289.540527 
	C360.184113,287.757935 360.783844,287.198944 360.753967,286.675903 
	C360.665833,285.131470 360.328644,283.601257 360.088928,282.065460 
	C359.064484,283.092316 357.783020,283.970154 357.079620,285.183167 
	C356.170715,286.750458 355.723663,288.585571 355.077728,290.305328 
	C354.406769,290.090698 353.735779,289.876038 353.064789,289.661407 
	C353.273163,288.327484 353.614532,286.997101 353.650055,285.658600 
	C353.681396,284.475800 353.371857,283.283905 353.212830,282.096039 
	C352.148438,282.863251 350.562836,283.418274 350.143555,284.448120 
	C349.536407,285.939423 349.773010,287.774231 349.516510,291.285675 
	C347.377258,289.025604 346.089203,287.664825 344.550079,286.038757 
	C344.182892,287.337677 343.823944,288.607391 343.709717,289.011475 
	C337.817108,289.011475 332.398407,289.011475 326.177948,289.011475 
	C325.631104,288.295929 325.181946,281.537659 322.162415,289.041595 
	C322.019623,289.396454 319.963593,288.981506 318.755219,288.337585 
	C316.305176,290.070740 313.781921,292.635315 310.136139,289.851593 
	C307.121735,287.549896 306.973389,283.874969 309.377899,281.733063 
	C311.338440,279.986664 314.908112,280.046692 317.764282,279.305725 
	C318.072021,280.733398 318.379730,282.161072 318.977844,284.935974 
	C316.179596,283.382721 314.943939,282.696808 312.775055,281.492920 
	C312.558350,283.808197 312.390991,285.595886 312.248657,287.116699 
	C318.981079,287.856018 319.765015,282.307404 322.192444,278.400848 
	C323.297363,280.305115 326.909271,280.309937 331.007812,279.026581 
	C330.615936,281.626221 330.272064,283.907501 329.890656,286.437927 
	C333.505371,284.658752 332.061890,277.263428 338.457275,279.398743 
	C338.975281,281.746002 339.488007,284.069305 340.262817,287.580200 
	C341.217865,284.008667 341.831909,281.712341 342.533203,279.089600 
	C348.027954,279.089600 353.552429,279.089600 359.505615,279.093384 
z"/>
<path fill="#0BAC59" opacity="1.000000" stroke="none" 
	d="
M250.245651,266.826324 
	C249.887146,264.062469 249.589325,261.359406 249.952942,258.748505 
	C250.551224,254.452484 248.718719,252.586548 244.349457,252.161072 
	C246.173553,251.689499 248.286331,251.466446 250.786346,251.137878 
	C251.459091,255.999954 251.744568,260.967560 252.055862,266.390808 
	C251.588943,266.873840 251.096191,266.901184 250.245651,266.826324 
z"/>
<path fill="#0BAC59" opacity="1.000000" stroke="none" 
	d="
M251.807129,206.246613 
	C252.031525,206.521591 251.924637,206.747284 251.547913,207.000732 
	C251.159225,206.729095 251.225159,206.452026 251.807129,206.246613 
z"/>
<path fill="#000000" opacity="1.000000" stroke="none" 
	d="
M214.746262,251.901459 
	C211.514175,252.561752 208.481857,253.606735 205.712463,253.128662 
	C203.918808,252.819031 201.275986,250.307709 201.245239,248.739166 
	C201.208191,246.849487 203.147919,243.858368 204.917480,243.207275 
	C209.194229,241.633667 213.869431,241.142944 218.852921,240.119354 
	C219.161148,245.349747 220.022049,249.494751 214.746262,251.901459 
z"/>
</svg>